<svg xmlns="http://www.w3.org/2000/svg" viewBox="0 0 1482.19744 856.32714"><defs><style>.cls-1{fill:#e71d73;}.cls-1,.cls-2,.cls-4,.cls-6,.cls-8{stroke:#1d1d1b;stroke-miterlimit:10;}.cls-2,.cls-5{fill:#c6c6c6;}.cls-2,.cls-4,.cls-6{stroke-width:3px;}.cls-3,.cls-8{fill:#1d1d1b;}.cls-4,.cls-9{fill:#dadada;}.cls-6{fill:#ededed;}.cls-7{fill:#f6f6f6;}.cls-8{stroke-width:4px;}.cls-10,.cls-11{font-size:220px;font-family:RibeyeMarrow-Regular, Ribeye Marrow;}.cls-10{fill:#e066a3;}.cls-11{fill:#4daf50;}</style></defs><title>webfolio2</title><g id="capa"><path class="cls-1" d="M304.61284,1168.07819l3.67746,12.14762S482.88323,1121,793.51608,1208.31915v-11.2087s-249.801-132.08173-488.90324-29.03226" transform="translate(-48.73996 -665.79688)"/><path class="cls-1" d="M1283.29089,1168.17777l-3.67746,12.14762s-174.59293-59.22581-485.22578,28.09334V1197.21s249.801-132.08173,488.90324-29.03226" transform="translate(-48.73996 -665.79688)"/></g><g id="fundo_livro"><path class="cls-2" d="M793.51608,1197.11045s249.67744-96.3871,488.90325-29.03226V788.33625s-249.67746-76.64516-488.90325,6.96774Z" transform="translate(-48.73996 -665.79688)"/><path class="cls-2" d="M793.51608,1197.11045s-249.67743-96.3871-488.90324-29.03226V788.33625s249.67745-76.64516,488.90324,6.96774Z" transform="translate(-48.73996 -665.79688)"/><path class="cls-3" d="M797,1182.54834c9.57574-3.47791,19.28271-6.58582,29.02454-9.56677q14.62123-4.44708,29.39-8.39636,29.54453-7.847,59.53351-13.88062,29.96859-6.03974,60.26459-10.27856c10.08526-1.47217,20.21295-2.62415,30.33654-3.79761l15.21314-1.51319c5.07086-.50842,10.15851-.8269,15.23712-1.24975,20.33118-1.43506,40.70984-2.36731,61.09619-2.30664l7.64392-.04041,7.6427.15625c5.09436.12622,10.19153.15906,15.28321.36194l15.2705.7312,3.81751.18286c1.27209.06568,2.541.18653,3.81164.2771l7.62146.58643c10.17371.64807,20.29493,1.8728,30.429,2.94678,2.538.23413,5.05237.65991,7.57788.99426l7.56921,1.06335,7.569,1.06336c2.52356.35022,5.02356.85119,7.53516,1.27771l15.04895,2.6792c4.99145,1.02014,9.96521,2.12976,14.94788,3.19006l7.47021,1.60791,7.40735,1.87756,14.80725,3.77588-14.83618-3.657-7.41944-1.81763-7.48107-1.5476c-4.98926-1.02-9.96863-2.08924-14.96473-3.06873l-15.06042-2.557c-2.51306-.40551-5.01062-.909-7.53381-1.249l-7.566-1.04163-7.5658-1.04162c-2.52429-.327-5.03735-.74561-7.5741-.97241-10.129-1.04517-20.24365-2.241-30.41052-2.86048l-7.61572-.56482c-1.26978-.08691-2.5376-.20422-3.80884-.26635l-3.81458-.17212-15.25781-.68848c-5.08716-.1886-10.17993-.2074-15.26941-.31946l-7.63513-.135-7.63635.0614c-20.36548-.00634-40.72022.98731-61.02551,2.46839-5.0741.40832-10.15747.71252-15.22437,1.20654l-15.20221,1.47009c-10.117,1.14466-20.239,2.26783-30.3197,3.71106q-30.26349,4.15521-60.24835,10.10608-29.9666,5.9502-59.53961,13.70093-14.79556,3.80549-29.4441,8.15894C816.33215,1176.11694,806.60284,1179.14673,797,1182.54834Z" transform="translate(-48.73996 -665.79688)"/><path class="cls-3" d="M797,1186.34033c9.57574-3.478,19.28271-6.58581,29.02454-9.56677q14.62123-4.44708,29.39-8.39636Q884.959,1160.53,914.948,1154.49658q29.96859-6.03973,60.26459-10.27856c10.08526-1.47217,20.21295-2.62415,30.33654-3.79773l15.21314-1.51319c5.07086-.5083,10.15851-.8269,15.23712-1.24963,20.33118-1.43518,40.70984-2.36731,61.09619-2.30676l7.64392-.04029,7.6427.15625c5.09436.1261,10.19153.15906,15.28321.36194l15.2705.7312,3.81751.18287c1.27209.06567,2.541.18652,3.81164.2771l7.62146.5863c10.17371.64819,20.29493,1.87292,30.429,2.9469,2.538.234,5.05237.65991,7.57788.99426l7.56921,1.06336,7.569,1.06323c2.52356.35034,5.02356.85132,7.53516,1.27771l15.04895,2.6792c4.99145,1.02014,9.96521,2.12976,14.94788,3.19018l7.47021,1.60779,7.40735,1.87769,14.80725,3.77588-14.83618-3.65711-7.41944-1.81763-7.48107-1.54748c-4.98926-1.02014-9.96863-2.08923-14.96473-3.06873l-15.06042-2.557c-2.51306-.40552-5.01062-.90906-7.53381-1.249l-7.566-1.04162-7.5658-1.04163c-2.52429-.327-5.03735-.74573-7.5741-.97253-10.129-1.045-20.24365-2.241-30.41052-2.86035l-7.61572-.56482c-1.26978-.087-2.5376-.20435-3.80884-.26636l-3.81458-.17212-15.25781-.68848c-5.08716-.18872-10.17993-.20739-15.26941-.31946l-7.63513-.135-7.63635.06141c-20.36548-.00647-40.72022.9873-61.02551,2.46826-5.0741.40845-10.15747.71264-15.22437,1.20666l-15.20221,1.47c-10.117,1.14478-20.239,2.26795-30.3197,3.71119q-30.26349,4.155-60.24835,10.10607-29.9666,5.95-59.53961,13.70081-14.79556,3.80567-29.4441,8.15906C816.33215,1179.90881,806.60284,1182.93872,797,1186.34033Z" transform="translate(-48.73996 -665.79688)"/><path class="cls-3" d="M797,1190.49c9.57574-3.478,19.28271-6.58594,29.02454-9.56689q14.62123-4.4469,29.39-8.39637,29.54453-7.847,59.53351-13.88061,29.96859-6.03956,60.26459-10.27857c10.08526-1.472,20.21295-2.62414,30.33654-3.7976l15.21314-1.51319c5.07086-.5083,10.15851-.8269,15.23712-1.24963,20.33118-1.43518,40.70984-2.36743,61.09619-2.30676l7.64392-.04041,7.6427.15625c5.09436.12622,10.19153.15906,15.28321.36194l15.2705.73132,3.81751.18274c1.27209.06568,2.541.18665,3.81164.27722l7.62146.58631c10.17371.64819,20.29493,1.8728,30.429,2.9469,2.538.234,5.05237.65991,7.57788.99414l7.56921,1.06335,7.569,1.06336c2.52356.35022,5.02356.85119,7.53516,1.27771l15.04895,2.6792c4.99145,1.02014,9.96521,2.12976,14.94788,3.19006l7.47021,1.60791,7.40735,1.87756,14.80725,3.776-14.83618-3.6571-7.41944-1.81763-7.48107-1.54761c-4.98926-1.02-9.96863-2.08923-14.96473-3.06872l-15.06042-2.55689c-2.51306-.40551-5.01062-.90918-7.53381-1.24914l-7.566-1.04163-7.5658-1.0415c-2.52429-.32715-5.03735-.74573-7.5741-.97254-10.129-1.04516-20.24365-2.241-30.41052-2.86035l-7.61572-.56482c-1.26978-.087-2.5376-.20434-3.80884-.26648l-3.81458-.17211-15.25781-.68848c-5.08716-.1886-10.17993-.20728-15.26941-.31934l-7.63513-.13513-7.63635.0614c-20.36548-.00635-40.72022.98743-61.02551,2.46839-5.0741.40844-10.15747.71264-15.22437,1.20654l-15.20221,1.47009c-10.117,1.14466-20.239,2.26782-30.3197,3.71118q-30.26349,4.155-60.24835,10.106-29.9666,5.9502-59.53961,13.70093-14.79556,3.80549-29.4441,8.15906C816.33215,1184.05847,806.60284,1187.08838,797,1190.49Z" transform="translate(-48.73996 -665.79688)"/><path class="cls-3" d="M789.83868,1182.36951c-9.60284-3.40161-19.33215-6.4314-29.09454-9.33387q-14.65182-4.32935-29.44409-8.159-29.55753-7.736-59.53961-13.70093-29.96586-5.95368-60.24836-10.106c-10.08068-1.44336-20.20269-2.56653-30.3197-3.71118l-15.20221-1.47009c-5.067-.494-10.15027-.7981-15.22436-1.20655-20.30536-1.48107-40.66-2.47473-61.02551-2.46838l-7.63636-.0614-7.63519.135c-5.08945.11206-10.18216.13086-15.26932.31946l-15.25781.68847-3.81458.17212c-1.27124.06214-2.53909.17945-3.80883.26636l-7.61582.56494c-10.16681.61939-20.28143,1.81519-30.41049,2.86035-2.53665.22681-5.04971.64539-7.5741.97242l-7.56579,1.04162-7.566,1.04163c-2.5232.34-5.02069.84363-7.53375,1.249l-15.0604,2.557c-4.99612.97949-9.97546,2.0487-14.96478,3.06872l-7.481,1.54761-7.41943,1.81763-14.83628,3.657,14.80732-3.77588,7.40725-1.87756,7.47031-1.60791c4.98267-1.06031,9.95639-2.16992,14.94781-3.19007l15.049-2.6792c2.51154-.42651,5.01166-.92749,7.53522-1.2777l7.56894-1.06336,7.56915-1.06335c2.52555-.33435,5.04-.76014,7.57785-.99427,10.13413-1.074,20.25525-2.2987,30.42905-2.94677l7.6214-.58643c1.27066-.09058,2.53952-.21143,3.81174-.2771l3.81747-.18286,15.27051-.7312c5.09161-.20288,10.18881-.23572,15.28317-.36194l7.64267-.15625,7.64392.0404c20.38639-.06066,40.76511.87159,61.09629,2.30665,5.07855.42285,10.16626.74133,15.23706,1.24975l15.21313,1.51318c10.1236,1.17347,20.25128,2.32544,30.33655,3.79761q30.27731,4.24146,60.26459,10.27857,29.96777,6.04192,59.5335,13.88061,14.77185,3.92505,29.39,8.39636C770.556,1175.78369,780.26294,1178.8916,789.83868,1182.36951Z" transform="translate(-48.73996 -665.79688)"/><path class="cls-3" d="M789.83868,1186.1615c-9.60284-3.40161-19.33215-6.43152-29.09454-9.334q-14.65182-4.32935-29.44409-8.159-29.55753-7.73584-59.53961-13.70081-29.96586-5.95367-60.24836-10.10608c-10.08068-1.44324-20.20269-2.5664-30.3197-3.71118l-15.20221-1.47c-5.067-.494-10.15027-.79822-15.22436-1.20667-20.30536-1.481-40.66-2.47473-61.02551-2.46826l-7.63636-.0614-7.63519.135c-5.08945.11206-10.18216.13074-15.26932.31946l-15.25781.68848-3.81458.17212c-1.27124.062-2.53909.17932-3.80883.26635l-7.61582.56482c-10.16681.61951-20.28143,1.81531-30.41049,2.86035-2.53665.22681-5.04971.64551-7.5741.97254l-7.56579,1.04162-7.566,1.04163c-2.5232.34-5.02069.84351-7.53375,1.249l-15.0604,2.557c-4.99612.97949-9.97546,2.04858-14.96478,3.06873l-7.481,1.54748-7.41943,1.81775-14.83628,3.657,14.80732-3.77588,7.40725-1.87768,7.47031-1.60779c4.98267-1.06042,9.95639-2.17,14.94781-3.19019l15.049-2.67919c2.51154-.4264,5.01166-.92737,7.53522-1.27771l7.56894-1.06324,7.56915-1.06335c2.52555-.33435,5.04-.76026,7.57785-.99426,10.13413-1.074,20.25525-2.29871,30.42905-2.94678l7.6214-.58643c1.27066-.09057,2.53952-.21142,3.81174-.2771l3.81747-.18286,15.27051-.7312c5.09161-.20288,10.18881-.23572,15.28317-.36194l7.64267-.15625,7.64392.04029c20.38639-.06055,40.76511.87158,61.09629,2.30676,5.07855.42273,10.16626.74133,15.23706,1.24963l15.21313,1.51331c10.1236,1.17346,20.25128,2.32544,30.33655,3.7976q30.27731,4.24146,60.26459,10.27857,29.96777,6.04193,59.5335,13.88061,14.77185,3.925,29.39,8.39637C770.556,1179.57568,780.26294,1182.68347,789.83868,1186.1615Z" transform="translate(-48.73996 -665.79688)"/><path class="cls-3" d="M789.83868,1190.31116c-9.60284-3.40161-19.33215-6.43152-29.09454-9.334q-14.65182-4.32934-29.44409-8.159-29.55753-7.736-59.53961-13.70093-29.96586-5.95368-60.24836-10.106c-10.08068-1.44336-20.20269-2.56653-30.3197-3.71118L565.99017,1143.83c-5.067-.4939-10.15027-.7981-15.22436-1.20655-20.30536-1.48095-40.66-2.47473-61.02551-2.46838l-7.63636-.0614-7.63519.13513c-5.08945.11206-10.18216.13074-15.26932.31946l-15.25781.68847-3.81458.172c-1.27124.06214-2.53909.17944-3.80883.26648l-7.61582.56482c-10.16681.61939-20.28143,1.81519-30.41049,2.86035-2.53665.22681-5.04971.64539-7.5741.97254l-7.56579,1.0415-7.566,1.04163c-2.5232.34-5.02069.84362-7.53375,1.24914l-15.0604,2.55689c-4.99612.97949-9.97546,2.0487-14.96478,3.06872l-7.481,1.54761-7.41943,1.81763-14.83628,3.6571,14.80732-3.776,7.40725-1.87756,7.47031-1.60791c4.98267-1.06031,9.95639-2.16993,14.94781-3.19007l15.049-2.6792c2.51154-.42651,5.01166-.92749,7.53522-1.27771l7.56894-1.06335,7.56915-1.06336c2.52555-.33422,5.04-.76013,7.57785-.99414,10.13413-1.07409,20.25525-2.2987,30.42905-2.9469l7.6214-.5863c1.27066-.09058,2.53952-.21155,3.81174-.27722l3.81747-.18274,15.27051-.73132c5.09161-.20288,10.18881-.23572,15.28317-.36194l7.64267-.15625,7.64392.0404c20.38639-.06054,40.76511.87159,61.09629,2.30677,5.07855.42273,10.16626.74133,15.23706,1.24963l15.21313,1.51318c10.1236,1.17347,20.25128,2.32556,30.33655,3.79761q30.27731,4.24164,60.26459,10.27857,29.96777,6.0421,59.5335,13.88061,14.77185,3.92523,29.39,8.39648C770.556,1183.72522,780.26294,1186.83313,789.83868,1190.31116Z" transform="translate(-48.73996 -665.79688)"/></g><g id="livro"><path class="cls-4" d="M793.51611,1180.22581s249.67744-96.3871,488.90324-29.03226V771.45161s-249.67745-76.64516-488.90324,6.96774Z" transform="translate(-48.73996 -665.79688)"/><path class="cls-4" d="M793.51611,1180.22581s-249.67743-96.3871-488.90324-29.03226V771.45161s249.67745-76.64516,488.90324,6.96774Z" transform="translate(-48.73996 -665.79688)"/></g><g id="linhas-back"><path class="cls-5" d="M984.05658,826.77106c5.46252-2.80341,11.10223-5.24561,16.77978-7.58911,5.67621-2.35682,11.45-4.45789,17.24054-6.53083q17.41608-6.07809,35.37793-10.53216a402.04513,402.04513,0,0,1,73.07813-11.3393l4.62988-.2539c1.5426-.09412,3.08667-.16529,4.63355-.18964l9.27453-.23431c3.09326-.00775,6.18811.05584,9.281.08093,3.093-.00037,6.18616.128,9.277.29742l4.63562.23,2.31714.11621,2.31408.19349,9.24842.81225c3.07763.31946,6.146.75324,9.21521,1.13629l4.598.6189,4.57617.78839a257.75246,257.75246,0,0,1,36.02551,8.6593l8.76026,2.97223c2.89868,1.04206,5.75415,2.2135,8.605,3.369l4.26965,1.73914c1.41028.61078,2.79553,1.28674,4.18884,1.93408,2.76892,1.34167,5.54578,2.64209,8.2843,4.012-2.96154-.83276-5.88476-1.73505-8.816-2.59607-1.46337-.4353-2.90649-.92114-4.37622-1.32806l-4.43493-1.13373c-2.96472-.71832-5.87146-1.59607-8.83216-2.28394l-8.90271-1.93743a351.27372,351.27372,0,0,0-35.84777-5.6175l-4.49769-.51068-4.51745-.34259c-3.0116-.21832-6.01233-.52087-9.0249-.69214l-9.04236-.42633-2.25867-.11615-2.2633-.0393-4.52564-.07709c-12.0625-.228-24.14123.01318-36.19519.79828a582.30642,582.30642,0,0,0-72.0116,9.01715c-11.93408,2.20032-23.81909,4.75036-35.66821,7.56128-2.972.6709-5.92059,1.42871-8.88336,2.15088l-8.85327,2.30615c-2.956.7652-5.89942,1.57971-8.83771,2.41925C989.92407,825.01306,986.99536,825.88916,984.05658,826.77106Z" transform="translate(-48.73996 -665.79688)"/><path class="cls-5" d="M976.391,873.23669c5.46253-2.8034,11.10217-5.24554,16.77973-7.58911,5.6762-2.35681,11.45-4.45782,17.24053-6.53082q17.41617-6.07809,35.37793-10.53217a402.04525,402.04525,0,0,1,73.07813-11.33929l4.62988-.25391c1.54273-.09405,3.08667-.16528,4.63355-.18957l9.27466-.23438c3.09326-.00775,6.188.05585,9.28088.08094,3.093-.00037,6.18616.128,9.277.29748l4.63574.22992,2.317.11621,2.31408.19348,9.24842.81226c3.07775.31946,6.146.75323,9.21521,1.13629l4.59814.619,4.576.78833a257.74688,257.74688,0,0,1,36.02563,8.6593l8.76014,2.97229c2.89868,1.042,5.75415,2.21344,8.6051,3.369l4.26953,1.73913c1.41028.61072,2.79553,1.28669,4.18884,1.934,2.76892,1.34173,5.54578,2.64209,8.2843,4.012-2.96154-.83277-5.88476-1.73505-8.816-2.596-1.46337-.43536-2.90649-.9212-4.37622-1.32812l-4.43493-1.13373c-2.96472-.71833-5.87146-1.596-8.832-2.28394l-8.90284-1.93744a351.26255,351.26255,0,0,0-35.84765-5.61743l-4.4978-.51074-4.51746-.34253c-3.01148-.21838-6.01233-.52094-9.0249-.69214l-9.04236-.42639-2.25855-.11615-2.26342-.03931-4.52552-.07708c-12.06262-.228-24.14135.01324-36.19531.79827a582.32268,582.32268,0,0,0-72.0116,9.01716c-11.93408,2.20031-23.819,4.75036-35.66815,7.56134-2.972.67083-5.92065,1.42871-8.88342,2.15081L994.05,868.25983c-2.956.76513-5.89936,1.57965-8.83771,2.41919C982.25842,871.4787,979.32971,872.3548,976.391,873.23669Z" transform="translate(-48.73996 -665.79688)"/><path class="cls-5" d="M970.7923,918.83917c5.46252-2.80334,11.10217-5.24554,16.77978-7.589,5.67621-2.35681,11.44989-4.45788,17.24054-6.53082q17.41617-6.07809,35.37793-10.53217a402.04187,402.04187,0,0,1,73.07813-11.33929l4.62988-.25391c1.5426-.09411,3.08667-.16528,4.63342-.18963l9.27466-.23432c3.09326-.00775,6.18811.05585,9.281.08094,3.093-.00037,6.18615.128,9.277.29742l4.63562.22992,2.31714.11627,2.31409.19348,9.24841.81226c3.07764.31946,6.146.75323,9.21521,1.13629l4.598.6189,4.57605.78839a257.73878,257.73878,0,0,1,36.02563,8.6593l8.76025,2.97223c2.89856,1.04205,5.75415,2.2135,8.605,3.369l4.26966,1.73913c1.41015.61078,2.79553,1.28675,4.18884,1.93408,2.76892,1.34168,5.54578,2.642,8.2843,4.012-2.96155-.83277-5.88489-1.73505-8.816-2.59607-1.4635-.4353-2.90649-.92114-4.37622-1.32807l-4.43494-1.13372c-2.96472-.71833-5.87146-1.59607-8.83215-2.28394l-8.90283-1.93744a351.27393,351.27393,0,0,0-35.84766-5.61749l-4.49768-.51068-4.51745-.34259c-3.0116-.21833-6.01233-.52088-9.02491-.69214l-9.04235-.42633-2.25867-.11615-2.26331-.03931-4.52563-.07709c-12.0625-.228-24.14124.01319-36.19531.79828a582.30905,582.30905,0,0,0-72.01148,9.01715c-11.9342,2.20032-23.81909,4.75037-35.66821,7.56128-2.972.6709-5.92059,1.42871-8.88336,2.15088l-8.85334,2.30615c-2.95593.7652-5.89935,1.57972-8.83764,2.41926C976.65973,917.08124,973.731,917.95734,970.7923,918.83917Z" transform="translate(-48.73996 -665.79688)"/><path class="cls-5" d="M963.12665,965.30487c5.46252-2.80341,11.10223-5.2456,16.77978-7.58911,5.67621-2.35681,11.44995-4.45789,17.24054-6.53082q17.41617-6.0781,35.37793-10.53217a402.04512,402.04512,0,0,1,73.07813-11.33929l4.62988-.25391c1.54272-.09405,3.08667-.16528,4.63355-.18957l9.27465-.23438c3.09314-.00775,6.188.05585,9.28089.08093,3.093-.00036,6.18615.128,9.277.29749l4.63562.22992,2.31714.11621,2.31409.19348,9.24841.81226c3.07764.31945,6.146.75323,9.21521,1.13629l4.598.61895,4.57617.78833a257.75108,257.75108,0,0,1,36.02551,8.65931l8.76025,2.97229c2.89869,1.042,5.75415,2.21344,8.605,3.369l4.26966,1.73913c1.41028.61072,2.79553,1.28668,4.18884,1.934,2.76892,1.34174,5.54578,2.64209,8.2843,4.012-2.96155-.83276-5.88476-1.735-8.816-2.596-1.46338-.43537-2.90649-.92121-4.37622-1.32813l-4.43493-1.13373c-2.96473-.71832-5.87146-1.596-8.83216-2.28393l-8.90271-1.93744a351.25938,351.25938,0,0,0-35.84778-5.61743l-4.49768-.51074-4.51745-.34253c-3.01148-.21839-6.01233-.52094-9.02491-.69214l-9.04235-.42639-2.25855-.11615-2.26343-.03931-4.52563-.07709c-12.0625-.228-24.14124.01325-36.19519.79828a582.31955,582.31955,0,0,0-72.0116,9.01715c-11.93414,2.20032-23.81909,4.75037-35.66821,7.56134-2.972.67084-5.92059,1.42871-8.88336,2.15082l-8.85327,2.30621c-2.956.76514-5.89942,1.57965-8.83771,2.41919C968.99414,963.54688,966.06543,964.423,963.12665,965.30487Z" transform="translate(-48.73996 -665.79688)"/><path class="cls-5" d="M953.82056,1012.93915c5.46252-2.80341,11.10217-5.24555,16.77978-7.58905,5.67621-2.35687,11.44989-4.45789,17.24054-6.53089q17.41617-6.078,35.37793-10.53216a402.0489,402.0489,0,0,1,73.07807-11.3393l4.62988-.2539c1.54272-.09406,3.08667-.16529,4.63354-.18958l9.27466-.23431c3.09326-.00781,6.18811.05578,9.281.08087,3.09289-.00031,6.186.128,9.277.29749l4.63562.22991,2.317.11622,2.31409.19354,9.24841.81219c3.07776.31952,6.146.75324,9.21521,1.13636l4.59815.61889,4.576.78833a257.75846,257.75846,0,0,1,36.02563,8.6593l8.76013,2.97229c2.89868,1.042,5.75415,2.21344,8.6051,3.369l4.26954,1.73914c1.41027.61078,2.79565,1.28668,4.18884,1.934,2.76892,1.34174,5.54577,2.64209,8.2843,4.012-2.96155-.83276-5.88477-1.7351-8.816-2.59607-1.46338-.4353-2.90649-.9212-4.37622-1.32812l-4.43494-1.13373c-2.9646-.71826-5.87146-1.596-8.832-2.28393l-8.90283-1.93744a351.25956,351.25956,0,0,0-35.84766-5.61744l-4.4978-.51074-4.51746-.34253c-3.01147-.21838-6.01232-.52093-9.0249-.69214l-9.04236-.42639-2.25854-.11609-2.26343-.03936-4.52551-.07709c-12.06262-.228-24.14124.01324-36.19531.79828a582.32256,582.32256,0,0,0-72.0116,9.01721c-11.93408,2.20032-23.819,4.7503-35.66815,7.56128-2.972.6709-5.9206,1.42871-8.88336,2.15082l-8.85334,2.30621c-2.95593.76514-5.89935,1.57965-8.83764,2.41919C959.688,1011.18121,956.75928,1012.05725,953.82056,1012.93915Z" transform="translate(-48.73996 -665.79688)"/><path class="cls-5" d="M946.15491,1059.40479c5.46252-2.80335,11.10223-5.24561,16.77978-7.58912,5.67621-2.35681,11.44995-4.45788,17.24054-6.53076q17.41617-6.07818,35.37793-10.53222a402.04358,402.04358,0,0,1,73.07807-11.33924l4.62988-.2539c1.54272-.09412,3.08679-.16529,4.63354-.18958l9.27466-.23437c3.09326-.00782,6.18811.05578,9.281.08093,3.09289-.00037,6.186.12793,9.277.29748l4.63563.22986,2.317.11621,2.31409.19348,9.24853.81226c3.07764.31946,6.14588.7533,9.21521,1.13635l4.598.6189,4.57605.78833a257.75706,257.75706,0,0,1,36.02563,8.6593l8.76013,2.97229c2.89868,1.042,5.75428,2.2135,8.60511,3.369l4.26953,1.73914c1.41027.61071,2.79565,1.28674,4.189,1.93408,2.7688,1.34167,5.54566,2.64209,8.28418,4.012-2.96155-.83276-5.88476-1.73511-8.81592-2.59607-1.4635-.4353-2.90661-.92114-4.37634-1.32812l-4.43494-1.13367c-2.9646-.71838-5.87146-1.59607-8.832-2.28394l-8.90283-1.9375a351.25709,351.25709,0,0,0-35.84766-5.61743l-4.4978-.51074-4.51745-.34253c-3.01148-.21838-6.01233-.52087-9.02491-.69214l-9.04223-.42639-2.25867-.11609-2.26343-.03931-4.52551-.07714c-12.06262-.228-24.14124.01318-36.19531.79834a582.318,582.318,0,0,0-72.01154,9.01709c-11.93414,2.20031-23.81909,4.75036-35.66821,7.5614-2.972.67077-5.9206,1.42871-8.88336,2.15075L963.814,1054.428c-2.956.76514-5.89941,1.57959-8.8377,2.41919C952.0224,1057.64685,949.09369,1058.523,946.15491,1059.40479Z" transform="translate(-48.73996 -665.79688)"/><path class="cls-5" d="M940.55627,1105.00732c5.46253-2.80334,11.10218-5.2456,16.77973-7.58911,5.67621-2.35681,11.44995-4.45788,17.24054-6.53076q17.41617-6.07818,35.37793-10.53223a402.04592,402.04592,0,0,1,73.07812-11.33923l4.62989-.25391c1.54272-.09411,3.08667-.16528,4.63354-.18969l9.27466-.23426c3.09326-.00781,6.188.05579,9.28088.08094,3.093-.00037,6.18616.12793,9.277.29736l4.63574.23,2.317.11621,2.31409.19348,9.24841.81226c3.07776.31946,6.146.7533,9.21521,1.13635l4.59814.6189,4.57605.78833a257.73858,257.73858,0,0,1,36.02564,8.6593l8.76013,2.97229c2.89868,1.042,5.75415,2.2135,8.6051,3.369l4.26953,1.73913c1.41028.61072,2.79554,1.28675,4.18885,1.93409,2.76892,1.34167,5.54577,2.642,8.2843,4.012-2.96155-.83276-5.88477-1.73511-8.816-2.59607-1.46338-.4353-2.9065-.92114-4.37622-1.32812l-4.43494-1.13367c-2.96472-.71839-5.87146-1.59607-8.832-2.28406l-8.90283-1.93738a351.26274,351.26274,0,0,0-35.84766-5.61743l-4.4978-.51074-4.51746-.34253c-3.01147-.21838-6.01233-.52087-9.0249-.69214l-9.04236-.42639-2.25854-.11609-2.26343-.03931-4.52551-.07714c-12.06263-.228-24.14136.01318-36.19532.79834a582.29941,582.29941,0,0,0-72.01159,9.01708c-11.93408,2.20032-23.819,4.75037-35.66815,7.56128-2.972.6709-5.92066,1.42872-8.88343,2.15088l-8.85327,2.30616c-2.956.76525-5.89935,1.57971-8.83771,2.41931C946.42371,1103.24939,943.495,1104.12549,940.55627,1105.00732Z" transform="translate(-48.73996 -665.79688)"/><path class="cls-5" d="M610.19995,821.60889c-2.93878-.8819-5.86743-1.75794-8.82135-2.55768-2.93829-.83954-5.88171-1.654-8.83765-2.41919l-8.85333-2.30621c-2.96277-.72211-5.91137-1.47992-8.88336-2.15082-11.84912-2.811-23.73407-5.361-35.66821-7.56128a582.32185,582.32185,0,0,0-72.01154-9.01721c-12.054-.785-24.13272-1.02625-36.19528-.79828l-4.52557.07709-2.2634.03936-2.25861.11609-9.04233.42639c-3.01257.17121-6.01339.47376-9.0249.69214l-4.51745.34253-4.49775.51074A351.25647,351.25647,0,0,0,358.95154,802.62l-8.9028,1.93743c-2.96064.68793-5.86744,1.56568-8.83213,2.28394l-4.43493,1.13373c-1.4697.407-2.91278.89282-4.37622,1.32812-2.93122.861-5.85447,1.76331-8.816,2.59607,2.73855-1.36993,5.51541-2.67029,8.2843-4.012,1.39328-.64734,2.77862-1.32324,4.18887-1.934l4.26956-1.73914c2.85089-1.15558,5.70642-2.327,8.60508-3.369l8.76019-2.97229a257.75907,257.75907,0,0,1,36.0256-8.6593l4.57608-.78833,4.59806-.6189c3.06921-.38311,6.13754-.81683,9.21521-1.13635l9.24841-.81219,2.31409-.19355,2.3171-.11621,4.63562-.22992c3.09085-.16949,6.184-.29779,9.277-.29748,3.0929-.02509,6.18775-.08869,9.281-.08087l9.27466.23431c1.54681.02429,3.09082.09552,4.63351.18958l4.62991.2539a402.0489,402.0489,0,0,1,73.07807,11.3393q17.92767,4.48269,35.37793,10.53216c5.79065,2.073,11.56433,4.174,17.24054,6.53089C599.09772,816.36334,604.73743,818.80548,610.19995,821.60889Z" transform="translate(-48.73996 -665.79688)"/><path class="cls-5" d="M617.86554,868.07452c-2.93872-.88183-5.86743-1.75793-8.82129-2.55767-2.93835-.83948-5.88171-1.654-8.83771-2.41919l-8.85327-2.30622c-2.96277-.7221-5.91138-1.47992-8.88336-2.15081-11.84912-2.811-23.73407-5.361-35.66821-7.56128a582.32163,582.32163,0,0,0-72.01157-9.01722c-12.054-.785-24.13272-1.02624-36.19528-.79821l-4.52554.077-2.26343.03937-2.25861.11615-9.04233.42633c-3.01257.17127-6.01339.47382-9.02487.69214l-4.51748.34259-4.49775.51068a351.25941,351.25941,0,0,0-35.84768,5.61749l-8.9028,1.93738c-2.96064.68793-5.86744,1.56568-8.8321,2.284l-4.43493,1.13366c-1.46973.407-2.91281.89283-4.37625,1.32813-2.93122.861-5.85447,1.76331-8.816,2.59607,2.73852-1.36993,5.51538-2.67029,8.28427-4.012,1.39328-.6474,2.77862-1.32331,4.1889-1.93409l4.26956-1.73913c2.85086-1.15558,5.70639-2.327,8.60507-3.369l8.76017-2.97229a257.75592,257.75592,0,0,1,36.0256-8.6593l4.57608-.78833,4.59805-.6189c3.06925-.38312,6.13755-.81683,9.21521-1.13635l9.24845-.8122,2.31409-.19348,2.31707-.11627,4.63562-.22992c3.09088-.16943,6.184-.29779,9.277-.29742,3.09287-.02515,6.18771-.08869,9.281-.08094l9.27462.23432c1.54682.02435,3.09085.09552,4.63352.18963l4.62991.25385a402.05484,402.05484,0,0,1,73.0781,11.33929q17.92758,4.48271,35.37793,10.53223c5.79058,2.07294,11.56433,4.174,17.24054,6.53082C606.76337,862.829,612.403,865.27118,617.86554,868.07452Z" transform="translate(-48.73996 -665.79688)"/><path class="cls-5" d="M623.46423,913.67706c-2.93872-.88189-5.86743-1.75793-8.82135-2.55768-2.93829-.83953-5.88171-1.654-8.83764-2.41918L596.9519,906.394c-2.96276-.7221-5.91131-1.47992-8.88336-2.15082-11.84912-2.811-23.73407-5.361-35.66815-7.56128a582.32256,582.32256,0,0,0-72.0116-9.01721c-12.054-.785-24.13269-1.02624-36.19528-.79828l-4.52554.07709-2.2634.03937-2.2586.11609-9.04236.42639c-3.01255.1712-6.01337.47375-9.02487.69214l-4.51749.34253-4.49774.51074a351.2597,351.2597,0,0,0-35.84766,5.61743l-8.90283,1.93744c-2.96063.68793-5.8674,1.56567-8.83209,2.28394l-4.43494,1.13372c-1.46973.407-2.91281.89283-4.37625,1.32813-2.93121.861-5.85446,1.7633-8.816,2.59607,2.73856-1.36994,5.51541-2.67029,8.28427-4.012,1.39331-.64733,2.77863-1.32324,4.1889-1.934l4.26957-1.73913c2.85089-1.15558,5.70639-2.327,8.60507-3.369l8.76016-2.97229a257.75626,257.75626,0,0,1,36.0256-8.6593l4.57609-.78833,4.59808-.6189c3.06921-.38312,6.13751-.81683,9.21518-1.13635l9.24844-.8122,2.31409-.19354,2.31708-.11621,4.63565-.22992c3.09085-.16949,6.184-.29779,9.277-.29748,3.0929-.02509,6.18772-.08869,9.281-.08088l9.27463.23432c1.54684.02429,3.09085.09552,4.63351.18957l4.62992.25391A402.04891,402.04891,0,0,1,554.066,889.025q17.92767,4.48271,35.37793,10.53217c5.79065,2.073,11.56433,4.174,17.24054,6.53088C612.36206,908.43152,618.00171,910.87366,623.46423,913.67706Z" transform="translate(-48.73996 -665.79688)"/><path class="cls-5" d="M631.12988,960.1427c-2.93878-.88184-5.86749-1.75793-8.82135-2.55768-2.93829-.83948-5.88171-1.654-8.8377-2.41919l-8.85328-2.30621c-2.96276-.72211-5.91137-1.47992-8.88336-2.15082-11.84912-2.811-23.73407-5.361-35.66821-7.56128a582.32161,582.32161,0,0,0-72.01154-9.01721c-12.054-.785-24.13272-1.02625-36.19531-.79822l-4.52554.077-2.2634.03937-2.25861.11615-9.04232.42633c-3.01258.17126-6.0134.47375-9.02491.69214l-4.51745.34259-4.49774.51068a351.25917,351.25917,0,0,0-35.84769,5.61749l-8.9028,1.93738c-2.96066.68792-5.86743,1.56567-8.83212,2.284l-4.43494,1.13367c-1.46973.407-2.91278.89282-4.37625,1.32813-2.93122.861-5.85446,1.7633-8.816,2.59607,2.73855-1.36994,5.51541-2.67029,8.2843-4.012,1.39328-.6474,2.77863-1.3233,4.18887-1.93408l4.26956-1.73914c2.8509-1.15557,5.70643-2.327,8.60508-3.369l8.76016-2.97229a257.7581,257.7581,0,0,1,36.02563-8.65931l4.57605-.78833,4.59809-.61889c3.06921-.38312,6.13754-.81684,9.21521-1.13635l9.24841-.8122,2.31409-.19348,2.31708-.11627,4.63565-.22992c3.09085-.16944,6.184-.29779,9.277-.29743,3.0929-.02514,6.18775-.08868,9.281-.08093l9.27466.23431c1.54681.02436,3.09082.09552,4.63348.18964l4.62994.25385a402.05411,402.05411,0,0,1,73.07807,11.33929q17.92767,4.48269,35.37793,10.53223c5.79059,2.07293,11.56433,4.174,17.24054,6.53082C620.02765,954.89716,625.66736,957.33936,631.12988,960.1427Z" transform="translate(-48.73996 -665.79688)"/><path class="cls-5" d="M640.436,1007.777c-2.93872-.88184-5.86743-1.75794-8.82135-2.55768-2.93829-.83948-5.88165-1.654-8.83764-2.41919l-8.85333-2.30615c-2.96277-.72217-5.91132-1.48-8.88337-2.15088-11.84912-2.81091-23.73407-5.361-35.66815-7.56128a582.30952,582.30952,0,0,0-72.0116-9.01715c-12.054-.7851-24.13269-1.02631-36.19528-.79828l-4.52554.07709-2.2634.0393-2.2586.11615-9.04233.42633c-3.01257.17127-6.0134.47382-9.0249.69214L429.533,982.66l-4.49771.51068a351.25643,351.25643,0,0,0-35.84769,5.6175l-8.90283,1.93737c-2.96063.68793-5.8674,1.56568-8.83209,2.284l-4.43494,1.13373c-1.46973.40692-2.91278.89276-4.37625,1.32806-2.93121.861-5.85446,1.76331-8.816,2.59607,2.73856-1.36993,5.51541-2.67029,8.2843-4.012,1.39328-.64734,2.77863-1.3233,4.18888-1.93408l4.26956-1.73914c2.85089-1.15552,5.70642-2.327,8.60507-3.369l8.76016-2.97229a257.75065,257.75065,0,0,1,36.02564-8.65924l4.57605-.78839,4.59808-.61889c3.06921-.38306,6.13754-.81684,9.21518-1.1363l9.24844-.81225,2.31409-.19348,2.31708-.11628,4.63565-.22991c3.09085-.16944,6.184-.2978,9.277-.29743,3.09289-.02508,6.18774-.08868,9.281-.08093l9.27463.23431c1.54681.02436,3.09082.09552,4.63354.18964l4.62989.2539a402.04884,402.04884,0,0,1,73.07806,11.33924q17.92767,4.48269,35.37793,10.53222c5.79065,2.07294,11.56433,4.174,17.24054,6.53083C629.3338,1002.53143,634.97345,1004.97363,640.436,1007.777Z" transform="translate(-48.73996 -665.79688)"/><path class="cls-5" d="M648.10162,1054.24268c-2.93878-.88184-5.86743-1.75794-8.82135-2.55774-2.93829-.83948-5.88171-1.65393-8.83764-2.41919l-8.85334-2.30616c-2.96276-.72216-5.91137-1.48-8.88336-2.15087-11.84912-2.81092-23.73407-5.361-35.66821-7.56128a582.31956,582.31956,0,0,0-72.01154-9.01715c-12.054-.7851-24.13272-1.02631-36.19528-.79828l-4.52557.07708-2.2634.03931-2.2586.11615-9.04233.42639c-3.01258.17121-6.0134.47376-9.02491.69214l-4.51745.34253-4.49774.51068a351.2758,351.2758,0,0,0-35.84769,5.61749l-8.9028,1.93744c-2.96063.68793-5.86743,1.56562-8.83212,2.28394l-4.43494,1.13373c-1.4697.407-2.91278.89282-4.37622,1.32812-2.93121.861-5.85446,1.76331-8.816,2.59607,2.73855-1.37,5.51541-2.67029,8.2843-4.012,1.39328-.64734,2.77863-1.32331,4.18887-1.93408l4.26957-1.73914c2.85089-1.15552,5.70642-2.327,8.60507-3.369l8.76019-2.97229a257.74962,257.74962,0,0,1,36.0256-8.6593l4.57609-.78833,4.59805-.619c3.06921-.38305,6.13754-.81683,9.21521-1.13629l9.24841-.81225,2.31409-.19349,2.31708-.11621,4.63565-.22992c3.09085-.16949,6.184-.29785,9.277-.29748,3.0929-.02509,6.18775-.08869,9.281-.08093l9.27466.23437c1.54681.02429,3.09082.09552,4.63348.18958l4.63.2539a402.04371,402.04371,0,0,1,73.07806,11.3393q17.92767,4.48269,35.37793,10.53216c5.79065,2.07294,11.56433,4.174,17.24054,6.53082C636.99939,1048.99707,642.6391,1051.43933,648.10162,1054.24268Z" transform="translate(-48.73996 -665.79688)"/><path class="cls-5" d="M653.70026,1099.84521c-2.93872-.88195-5.86744-1.75793-8.82129-2.55773-2.93836-.83948-5.88172-1.65406-8.83771-2.41919l-8.85327-2.30616c-2.96277-.72216-5.91138-1.48-8.88336-2.15088-11.84912-2.81091-23.73407-5.361-35.66822-7.56127a582.32123,582.32123,0,0,0-72.01159-9.01722c-12.054-.785-24.13269-1.02624-36.19525-.79821l-4.52555.077-2.26343.03943-2.2586.11609-9.04233.42639c-3.01257.17114-6.0134.47376-9.02487.69214l-4.51749.34253-4.49774.51074a351.25983,351.25983,0,0,0-35.84769,5.61743l-8.9028,1.93738c-2.96063.688-5.86743,1.56568-8.83209,2.28394l-4.43494,1.13379c-1.46972.40686-2.91281.89282-4.37625,1.32812-2.93121.861-5.85446,1.76331-8.816,2.59607,2.73853-1.37,5.51538-2.67029,8.28427-4.01208,1.39328-.64734,2.77863-1.32325,4.18891-1.934l4.26956-1.73914c2.85086-1.15564,5.70639-2.327,8.60507-3.369l8.76016-2.97229a257.73952,257.73952,0,0,1,36.02561-8.6593l4.57608-.78833,4.59805-.6189c3.06925-.38318,6.13754-.81689,9.21521-1.13635l9.24845-.81226,2.31408-.19348,2.31708-.11621,4.63562-.23c3.09088-.16943,6.184-.29773,9.277-.29748,3.09286-.025,6.18771-.08863,9.281-.08081l9.27466.23425c1.54682.02429,3.09082.09558,4.63349.18957l4.62988.25391a402.05489,402.05489,0,0,1,73.07812,11.33936q17.92758,4.4826,35.37793,10.5321c5.79059,2.073,11.56433,4.17407,17.24054,6.53088C642.59808,1094.59961,648.23773,1097.04175,653.70026,1099.84521Z" transform="translate(-48.73996 -665.79688)"/></g><g id="paginas"><path class="cls-6" d="M793.51608,778.41935v401.80646s157.93549-133.54847,418.06458-75.48389L1201.129,668.09678S915.45157,650.67741,793.51608,778.41935Z" transform="translate(-48.73996 -665.79688)"/><path class="cls-6" d="M793.51608,778.41933v401.80645S635.5806,1046.6774,375.45157,1104.74191l10.45161-436.64516S671.5806,650.6774,793.51608,778.41933Z" transform="translate(-48.73996 -665.79688)"/></g><g id="paginas-sombra"><path class="cls-7" d="M795.75646,790.20011v366.668s144.12384-121.86949,381.50432-68.88273l-9.53765-398.46S907.02854,673.62935,795.75646,790.20011Z" transform="translate(-48.73996 -665.79688)"/><path class="cls-7" d="M795.75646,795.20009v366.668s-144.12384-121.86942-381.50427-68.88272l9.5376-398.46S684.48438,678.62934,795.75646,795.20009Z" transform="translate(-48.73996 -665.79688)"/><g id="Camada_34" data-name="Camada 34"><line class="cls-8" x1="744.77612" y1="112.62245" x2="744.77612" y2="501.84142"/></g></g><g id="linhas"><path class="cls-9" d="M834.0213,805.74164c4.92243-3.6698,10.07947-7.01276,15.29022-10.26465,5.20722-3.26483,10.55292-6.29358,15.92-9.29742q16.1682-8.88,33.14361-16.24884A402.05116,402.05116,0,0,1,968.564,746.63879l4.52387-1.01757c1.50574-.34839,3.0166-.67444,4.538-.95478l9.10761-1.76794c3.04919-.5202,6.11175-.97034,9.16608-1.45807,3.05011-.51288,6.12176-.89887,9.198-1.2439l4.60968-.54144,2.30426-.26929,2.31421-.19262,9.25513-.73151c3.08814-.195,6.18579-.27563,9.27612-.40643l4.63709-.15155,4.64343.01916a257.75729,257.75729,0,0,1,36.9624,2.57l9.1316,1.47955c3.03125.5473,6.04138,1.22937,9.04443,1.89655l4.49866,1.00763c1.49194.36865,2.97021.80566,4.45153,1.21319,2.95289.86432,5.90686,1.68659,8.83448,2.58374-3.0586-.3305-6.091-.736-9.12427-1.0993-1.51538-.18677-3.019-.42682-4.53589-.5846l-4.5614-.38311c-3.04273-.21711-6.05481-.60108-9.0885-.78888l-9.10071-.43537a351.25618,351.25618,0,0,0-36.283.40027l-4.52026.2417-4.51172.41071c-3.0061.28369-6.0155.4826-9.01489.81292l-8.98792,1.07788-2.24664.25971-2.23865.3363-4.47571.67389q-17.90048,2.66089-35.56268,6.785a582.31221,582.31221,0,0,0-69.52179,20.82513c-11.40454,4.14746-22.70264,8.63159-33.92218,13.36713-2.81976,1.15411-5.602,2.39007-8.40417,3.59314l-8.34876,3.74133c-2.78833,1.24444-5.556,2.5354-8.31464,3.85022C839.5163,803.03571,836.77325,804.385,834.0213,805.74164Z" transform="translate(-48.73996 -665.79688)"/><path class="cls-9" d="M834.16119,852.83514c4.92249-3.6698,10.07953-7.01275,15.29029-10.26464,5.20715-3.26484,10.55291-6.29358,15.92-9.29743q16.16822-8.88,33.14362-16.24884a402.049,402.049,0,0,1,70.18884-23.29187l4.5238-1.01764c1.50574-.34839,3.01666-.67444,4.538-.95477l9.1076-1.768c3.0492-.5202,6.11182-.97033,9.16608-1.45806,3.05017-.51288,6.12182-.89887,9.19806-1.2439l4.60962-.54138,2.30432-.26935,2.31415-.19263,9.25518-.7315c3.08808-.19495,6.18586-.27558,9.27607-.40638l4.63708-.15161,4.64343.01917a257.75752,257.75752,0,0,1,36.96241,2.57l9.13159,1.47956c3.03137.5473,6.0415,1.22937,9.04443,1.89654l4.49866,1.00763c1.49206.36866,2.97021.80567,4.45154,1.2132,2.95288.86432,5.90686,1.68658,8.83459,2.58374-3.05871-.33051-6.09106-.7359-9.12439-1.09931-1.51538-.18676-3.01892-.42675-4.53576-.58459l-4.56153-.38312c-3.04272-.2171-6.05481-.60107-9.0885-.78888l-9.10071-.43536a351.25336,351.25336,0,0,0-36.283.40033l-4.52014.24164-4.51184.4107c-3.0061.28369-6.0155.48261-9.01477.81293l-8.988,1.07788-2.24664.25971-2.23859.3363-4.47576.67389q-17.9004,2.661-35.56263,6.785a582.31373,582.31373,0,0,0-69.52185,20.82514c-11.40454,4.14746-22.70263,8.63159-33.92218,13.36718-2.8197,1.15406-5.602,2.39-8.40411,3.59308l-8.34876,3.7414c-2.78833,1.24438-5.55609,2.53533-8.31463,3.85015C839.65625,850.12921,836.91321,851.47852,834.16119,852.83514Z" transform="translate(-48.73996 -665.79688)"/><path class="cls-9" d="M836.19647,898.73492c4.92249-3.66973,10.07953-7.01269,15.29029-10.26458,5.20715-3.26483,10.55291-6.29358,15.92-9.29743q16.16822-8.88,33.14361-16.24884a402.04455,402.04455,0,0,1,70.18885-23.29193l4.5238-1.01758c1.50574-.34839,3.01666-.6745,4.538-.95477l9.1076-1.76794c3.04919-.52021,6.11182-.97034,9.16608-1.45807,3.05017-.51288,6.12182-.89887,9.19806-1.244l4.60962-.54138,2.30432-.26935,2.31414-.19263,9.25513-.7315c3.08814-.19489,6.18591-.27558,9.27612-.40638l4.63709-.15155,4.64343.01917a257.74714,257.74714,0,0,1,36.9624,2.56995l9.1316,1.47961c3.03125.5473,6.0415,1.22937,9.04443,1.89654l4.49866,1.00757c1.49206.36866,2.97021.80573,4.45154,1.21326,2.95288.86432,5.90686,1.68658,8.83459,2.58374-3.05872-.33051-6.09106-.736-9.12439-1.0993-1.51538-.18683-3.01892-.42682-4.53577-.5846l-4.56152-.38312c-3.04272-.21716-6.05481-.60107-9.0885-.78888l-9.10071-.43542a351.2702,351.2702,0,0,0-36.283.40033l-4.52014.24164-4.51184.41076c-3.0061.2837-6.0155.48255-9.01477.81287l-8.988,1.07794-2.24664.25971-2.23859.33624-4.47577.67395q-17.90038,2.6609-35.56262,6.78491a582.31587,582.31587,0,0,0-69.52185,20.8252c-11.40454,4.1474-22.70264,8.63159-33.92218,13.36712-2.8197,1.15412-5.602,2.39-8.40411,3.59314l-8.34876,3.74134c-2.78833,1.24438-5.55609,2.5354-8.31463,3.85022C841.69153,896.02905,838.94849,897.3783,836.19647,898.73492Z" transform="translate(-48.73996 -665.79688)"/><path class="cls-9" d="M836.33643,945.82849c4.92242-3.6698,10.07946-7.01276,15.29022-10.26465,5.20721-3.26483,10.55292-6.29358,15.92-9.29742q16.16821-8.88,33.14362-16.24884a402.045,402.045,0,0,1,70.18884-23.29193l4.52386-1.01758c1.50574-.34839,3.01661-.6745,4.538-.95477l9.1076-1.76795c3.0492-.5202,6.11176-.97034,9.16608-1.45807,3.05011-.51288,6.12177-.89886,9.198-1.24389l4.60968-.54145,2.30426-.26928,2.31421-.19263,9.25519-.73151c3.088-.19494,6.18579-.27563,9.276-.40643l4.63708-.15155,4.64343.01916a257.76049,257.76049,0,0,1,36.96253,2.57l9.13159,1.47962c3.03125.5473,6.04138,1.22937,9.04431,1.89654l4.49878,1.00763c1.492.36859,2.97009.80566,4.45142,1.2132,2.95288.86431,5.90686,1.68658,8.83459,2.58374-3.05859-.33051-6.09094-.736-9.12439-1.09931-1.51526-.18683-3.01892-.42682-4.53576-.58459l-4.56153-.38312c-3.04272-.21716-6.05468-.60107-9.08838-.78888l-9.10083-.43536a351.25618,351.25618,0,0,0-36.283.40026l-4.52014.2417-4.51184.41071c-3.006.28369-6.0155.48254-9.01477.81293l-8.988,1.07788-2.24665.2597-2.23864.33631-4.47577.67389q-17.9004,2.66088-35.56263,6.78491a582.32413,582.32413,0,0,0-69.52179,20.82519c-11.40454,4.14746-22.70263,8.63159-33.92218,13.36713-2.81976,1.15411-5.602,2.39007-8.40417,3.59314l-8.34876,3.74133c-2.78833,1.24445-5.556,2.5354-8.31463,3.85022C841.83142,943.12256,839.08838,944.4718,836.33643,945.82849Z" transform="translate(-48.73996 -665.79688)"/><path class="cls-9" d="M835.05219,994.34631c4.92242-3.6698,10.07946-7.01275,15.29022-10.26464,5.20721-3.26484,10.55291-6.29358,15.92-9.29743q16.16822-8.88,33.14362-16.24884a402.05085,402.05085,0,0,1,70.18884-23.29193l4.52386-1.01758c1.50574-.34839,3.0166-.67444,4.538-.95477l9.1076-1.768c3.0492-.5202,6.11176-.97033,9.16608-1.45807,3.05011-.51287,6.12177-.89886,9.198-1.24389l4.60968-.54144,2.30426-.26929,2.31421-.19263,9.25512-.7315c3.088-.195,6.1858-.27564,9.27613-.40644l4.63708-.15155,4.64343.01917a257.75742,257.75742,0,0,1,36.96241,2.57l9.13159,1.47956c3.03125.5473,6.04138,1.22937,9.04443,1.89654l4.49866,1.00763c1.49194.36865,2.97021.80567,4.45154,1.2132,2.95288.86432,5.90686,1.68658,8.83447,2.58374-3.05859-.33051-6.09094-.736-9.12427-1.09931-1.51538-.18676-3.019-.42681-4.53589-.58459l-4.5614-.38312c-3.04272-.2171-6.05481-.60107-9.0885-.78888l-9.10083-.43536a351.25123,351.25123,0,0,0-36.28283.40027l-4.52027.2417-4.51172.4107c-3.0061.28369-6.0155.48261-9.01489.81293l-8.98791,1.07788-2.24665.2597-2.23865.33631-4.47576.67389q-17.9004,2.66088-35.56263,6.785a582.317,582.317,0,0,0-69.52185,20.82513c-11.40448,4.14747-22.70257,8.6316-33.92212,13.36713-2.81976,1.15412-5.602,2.39008-8.40417,3.59314l-8.34876,3.74133c-2.78833,1.24445-5.556,2.5354-8.31463,3.85022C840.54718,991.64038,837.80414,992.98969,835.05219,994.34631Z" transform="translate(-48.73996 -665.79688)"/><path class="cls-9" d="M835.19208,1041.43982c4.92248-3.6698,10.07947-7.0127,15.29022-10.26465,5.20721-3.26477,10.553-6.29358,15.92-9.29742q16.16822-8.8799,33.14362-16.24884A402.04842,402.04842,0,0,1,969.7348,982.337l4.52381-1.01764c1.50573-.34839,3.0166-.67444,4.538-.95478l9.10761-1.76794c3.04919-.5202,6.11181-.97034,9.16607-1.45807,3.05017-.51288,6.12183-.89886,9.19806-1.2439l4.60962-.54138,2.30432-.26935,2.31415-.19262,9.25513-.73151c3.08813-.195,6.18591-.27557,9.27612-.40637l4.63708-.15161,4.64344.01916a257.75883,257.75883,0,0,1,36.9624,2.57l9.13159,1.47955c3.03125.54731,6.04151,1.22937,9.04444,1.89655l4.49865,1.00763c1.49207.36865,2.97022.80566,4.45154,1.21319,2.95288.86432,5.90686,1.68659,8.83447,2.58374-3.05859-.3305-6.09094-.7359-9.12426-1.0993-1.51539-.18677-3.01893-.42676-4.53577-.58459l-4.56152-.38312c-3.04273-.2171-6.05481-.60108-9.08851-.78888l-9.1007-.43537a351.25614,351.25614,0,0,0-36.283.40033l-4.52014.24164-4.51184.41071c-3.00611.28369-6.01551.4826-9.01478.81292l-8.988,1.07789-2.24665.2597-2.23858.3363-4.47577.67389q-17.90039,2.661-35.56262,6.785a582.31258,582.31258,0,0,0-69.52185,20.82513c-11.40454,4.14746-22.70264,8.63159-33.92218,13.36719-2.81971,1.154-5.602,2.39-8.40412,3.59314l-8.34875,3.74133c-2.78833,1.24439-5.55609,2.5354-8.31464,3.85022C840.68707,1038.73389,837.944,1040.08313,835.19208,1041.43982Z" transform="translate(-48.73996 -665.79688)"/><path class="cls-9" d="M837.22736,1087.3396c4.92248-3.6698,10.07946-7.0127,15.29022-10.26465,5.20721-3.26477,10.553-6.29358,15.92-9.29736q16.16821-8.87988,33.14362-16.2489a402.05316,402.05316,0,0,1,70.18884-23.29187l4.5238-1.01758c1.50574-.34839,3.01661-.67444,4.538-.95484l9.1076-1.76794c3.0492-.52014,6.11182-.97028,9.16608-1.458,3.05017-.51288,6.12183-.89886,9.198-1.244l4.60968-.54138,2.30432-.26935,2.31415-.19262,9.25513-.73151c3.08813-.19488,6.18591-.27557,9.27612-.40637l4.63708-.15155,4.64344.01916a257.75013,257.75013,0,0,1,36.9624,2.57l9.13159,1.47961c3.03125.54725,6.0415,1.22937,9.04443,1.89649l4.49866,1.00769c1.49207.36865,2.97022.80566,4.45154,1.21313,2.95288.86438,5.90686,1.68665,8.83447,2.58387-3.05859-.33057-6.09094-.736-9.12427-1.09937-1.51538-.18677-3.01892-.42676-4.53576-.58459l-4.56153-.38318c-3.04272-.217-6.05481-.601-9.0885-.78882l-9.10071-.43543a351.25316,351.25316,0,0,0-36.283.4004l-4.52015.24157-4.51184.41077c-3.0061.28369-6.0155.48254-9.01477.81287l-8.988,1.07788-2.24665.25976-2.23858.33631-4.47577.67382q-17.9004,2.66107-35.56262,6.785a582.313,582.313,0,0,0-69.52186,20.82507c-11.40454,4.14746-22.70263,8.63159-33.92218,13.36719-2.81976,1.154-5.602,2.39-8.40411,3.59314l-8.34875,3.74133c-2.78833,1.24439-5.5561,2.5354-8.31464,3.85022C842.72235,1084.63367,839.97931,1085.983,837.22736,1087.3396Z" transform="translate(-48.73996 -665.79688)"/></g><g id="linhas-2"><path class="cls-9" d="M757.91193,807.31769c-2.752-1.35669-5.49506-2.70593-8.27558-3.98407-2.7586-1.31482-5.5263-2.60578-8.31463-3.85022l-8.34876-3.74133c-2.80218-1.20307-5.58441-2.439-8.40417-3.59314-11.21949-4.73554-22.51758-9.21967-33.92212-13.36713a582.33025,582.33025,0,0,0-69.52185-20.8252q-17.636-4.1574-35.56263-6.78491l-4.47576-.67389-2.23865-.3363-2.24664-.25971-8.988-1.07788c-2.99927-.33038-6.00873-.52923-9.01477-.81292l-4.51178-.41071-4.5202-.2417a351.25618,351.25618,0,0,0-36.283-.40027l-9.10077.43537c-3.03369.1878-6.04575.57171-9.08847.78888l-4.5615.38311c-1.51681.15778-3.02044.39777-4.53579.5846-3.03336.36334-6.06571.7688-9.12433,1.0993,2.9277-.89715,5.88162-1.71942,8.83456-2.58374,1.4813-.40753,2.95951-.8446,4.45148-1.21319l4.49872-1.00763c3.00293-.66718,6.01309-1.34925,9.04437-1.89655l9.13159-1.47961a257.75761,257.75761,0,0,1,36.96247-2.56995l4.64343-.01916,4.637.15155c3.09027.13079,6.188.21148,9.27613.40643l9.25518.73151,2.31415.19262,2.30432.26929,4.60962.54144c3.07624.345,6.14789.731,9.19806,1.2439,3.05426.48773,6.11688.93787,9.16608,1.45807l9.10754,1.76794c1.52143.28028,3.03229.60639,4.538.95478l4.52386,1.01757A402.04667,402.04667,0,0,1,693.558,771.50677q16.937,7.39143,33.14362,16.24885c5.36707,3.00384,10.71277,6.03259,15.92,9.29742C747.8324,800.30493,752.98944,803.64789,757.91193,807.31769Z" transform="translate(-48.73996 -665.79688)"/><path class="cls-9" d="M757.772,854.41119c-2.75195-1.35669-5.495-2.70593-8.27557-3.98407-2.75855-1.31482-5.52631-2.60577-8.31458-3.85022l-8.34881-3.74133c-2.80213-1.20306-5.58435-2.439-8.40412-3.59314-11.21954-4.73553-22.51764-9.21966-33.92218-13.36712a582.31078,582.31078,0,0,0-69.52185-20.82514q-17.63589-4.1575-35.56262-6.785l-4.47577-.67389-2.23858-.33631-2.24665-.2597-8.988-1.07788c-2.99933-.33032-6.00879-.52924-9.01483-.81293l-4.51178-.4107-4.52021-.2417a351.25218,351.25218,0,0,0-36.2829-.40027l-9.10079.43536c-3.0337.18781-6.04575.57178-9.08848.78888l-4.56146.38312c-1.51684.15778-3.02048.39783-4.53583.58459-3.03335.36335-6.0657.7688-9.12432,1.09931,2.9277-.89716,5.88162-1.71942,8.83456-2.58374,1.48129-.40753,2.9595-.84455,4.45148-1.2132l4.49872-1.00763c3.00293-.66717,6.01309-1.34924,9.04437-1.89654l9.13156-1.47956a257.75882,257.75882,0,0,1,36.96246-2.57l4.64344-.01917,4.63708.15155c3.09027.1308,6.188.21149,9.27606.40644l9.25519.7315,2.31415.19263,2.30432.26929,4.60968.54144c3.07617.345,6.14783.731,9.198,1.2439,3.05426.48773,6.11688.93786,9.16607,1.45806l9.10761,1.768c1.52142.28033,3.03229.60638,4.538.95477l4.52387,1.01758a402.04856,402.04856,0,0,1,70.18878,23.29193q16.93707,7.39141,33.14362,16.24884c5.36706,3.00385,10.71283,6.03259,15.92,9.29743C747.6925,847.39844,752.84949,850.74139,757.772,854.41119Z" transform="translate(-48.73996 -665.79688)"/><path class="cls-9" d="M755.73669,900.311c-2.75195-1.35662-5.495-2.70587-8.27557-3.984-2.75854-1.31482-5.52631-2.60584-8.31457-3.85022l-8.34882-3.74134c-2.80212-1.20312-5.58435-2.439-8.40411-3.59314-11.21955-4.73553-22.51764-9.21972-33.92218-13.36712A582.31547,582.31547,0,0,0,618.94958,850.95q-17.63589-4.15741-35.56262-6.785l-4.47577-.67389-2.23858-.33624-2.24665-.25977-8.988-1.07788c-2.99933-.33032-6.00879-.52918-9.01483-.81287l-4.51178-.41076-4.52021-.24164a351.26933,351.26933,0,0,0-36.28292-.40033l-9.10077.43542c-3.03369.18781-6.04575.57172-9.08847.78882l-4.56147.38318c-1.51684.15778-3.02047.39777-4.53582.5846-3.03336.36334-6.06571.76879-9.12433,1.0993,2.9277-.89722,5.88165-1.71942,8.83456-2.5838,1.48129-.40753,2.95951-.84454,4.45148-1.2132l4.49872-1.00757c3.003-.66717,6.01309-1.34924,9.04437-1.89654l9.13159-1.47962a257.74939,257.74939,0,0,1,36.96243-2.56994l4.64344-.01917,4.63708.15155c3.09027.1308,6.188.21149,9.27606.40638l9.25519.7315,2.31415.19263,2.30432.26935,4.60968.54138c3.07617.345,6.14783.731,9.198,1.2439,3.05432.48779,6.11688.93786,9.16608,1.45813l9.1076,1.76794c1.52142.28027,3.03229.60632,4.538.95477l4.52386,1.01758a402.04836,402.04836,0,0,1,70.18878,23.29187q16.93707,7.39142,33.14362,16.2489c5.36706,3.00385,10.71283,6.0326,15.92,9.29737C745.65723,893.29828,750.81421,896.64117,755.73669,900.311Z" transform="translate(-48.73996 -665.79688)"/><path class="cls-9" d="M755.5968,947.40448c-2.752-1.35663-5.495-2.70587-8.27557-3.984-2.75861-1.31482-5.52631-2.60583-8.31464-3.85022l-8.34875-3.74133c-2.80213-1.20313-5.58441-2.439-8.40418-3.59314-11.21948-4.73554-22.51758-9.21973-33.92212-13.36713a582.31619,582.31619,0,0,0-69.52185-20.82519q-17.636-4.15742-35.56262-6.78492l-4.47577-.67395-2.23865-.33624-2.24658-.2597-8.988-1.07794c-2.99926-.33033-6.00872-.52918-9.01477-.81287l-4.51178-.41077-4.5202-.24164a351.27578,351.27578,0,0,0-36.283-.40033l-9.10077.43543c-3.03369.1878-6.04574.57172-9.08847.78888l-4.56146.38312c-1.51684.15777-3.02048.39776-4.53583.58459-3.03335.36334-6.0657.7688-9.12433,1.09931,2.92771-.89716,5.88166-1.71943,8.83457-2.58381,1.48129-.40747,2.9595-.84454,4.45148-1.21319l4.49871-1.00757c3.003-.66717,6.0131-1.34924,9.04438-1.89655l9.13159-1.47961a257.75036,257.75036,0,0,1,36.96246-2.57l4.64343-.01916,4.637.15155c3.09027.1308,6.188.21149,9.27612.40637l9.25519.73151,2.31415.19263,2.30432.26934,4.60962.54139c3.07623.34509,6.14789.73107,9.19806,1.24389,3.05426.48779,6.11688.93793,9.16607,1.45813l9.10755,1.76795c1.52142.28027,3.03229.60638,4.53808.95477l4.52381,1.01758a402.04527,402.04527,0,0,1,70.18884,23.29193q16.937,7.39142,33.14362,16.24884c5.36706,3.00384,10.71283,6.03259,15.92,9.29742C745.51727,940.39178,750.67432,943.73474,755.5968,947.40448Z" transform="translate(-48.73996 -665.79688)"/><path class="cls-9" d="M756.881,995.92236c-2.752-1.35669-5.495-2.70593-8.27557-3.98407-2.75861-1.31482-5.52631-2.60577-8.31464-3.85022l-8.34875-3.74133c-2.80213-1.20306-5.58441-2.439-8.40418-3.59314-11.21948-4.73553-22.51758-9.21966-33.92212-13.36713a582.32726,582.32726,0,0,0-69.52185-20.82519q-17.636-4.15742-35.56262-6.78491l-4.47577-.67389-2.23865-.33631-2.24658-.2597-8.988-1.07788c-2.99927-.33038-6.00873-.52924-9.01478-.81293l-4.51177-.4107-4.52021-.2417a351.25334,351.25334,0,0,0-36.283-.40027l-9.10077.43536c-3.03369.18781-6.04574.57172-9.08847.78888l-4.56146.38312c-1.51684.15778-3.02048.39777-4.53583.58459-3.03335.36335-6.0657.7688-9.12432,1.09931,2.9277-.89716,5.88165-1.71942,8.83456-2.58374,1.48129-.40753,2.9595-.84461,4.45148-1.2132l4.49871-1.00763c3.003-.66717,6.0131-1.34924,9.04438-1.89654l9.13159-1.47962a257.75756,257.75756,0,0,1,36.96246-2.56994l4.64344-.01917,4.637.15155c3.09027.1308,6.188.21149,9.27612.40644l9.25519.7315,2.31415.19263,2.30432.26929,4.60962.54144c3.07623.345,6.14789.731,9.19806,1.24389,3.05426.48774,6.11688.93787,9.16607,1.45807l9.10761,1.768c1.52136.28027,3.03223.60638,4.538.95477l4.52381,1.01758a402.04527,402.04527,0,0,1,70.18884,23.29193q16.937,7.39141,33.14362,16.24884c5.36706,3.00385,10.71283,6.03259,15.92,9.29742C746.80151,988.90961,751.95856,992.25256,756.881,995.92236Z" transform="translate(-48.73996 -665.79688)"/><path class="cls-9" d="M756.74109,1043.01587c-2.75195-1.35669-5.495-2.70593-8.27557-3.98413-2.75855-1.3147-5.52631-2.60571-8.31458-3.8501l-8.34875-3.74133c-2.80219-1.20313-5.58442-2.43909-8.40418-3.59314-11.21954-4.7356-22.51764-9.21973-33.92218-13.36719A582.31313,582.31313,0,0,0,619.954,993.65485q-17.63589-4.15751-35.56262-6.785l-4.47571-.67389-2.23865-.3363-2.24664-.2597-8.988-1.07789c-2.99926-.33032-6.00879-.52923-9.01483-.81292l-4.51178-.41071-4.5202-.2417a351.255,351.255,0,0,0-36.2829-.40027l-9.1008.43537c-3.03369.1878-6.04574.57178-9.08847.78888l-4.56146.38311c-1.51685.15778-3.02048.39783-4.53583.5846-3.03335.36334-6.0657.7688-9.12433,1.0993,2.92771-.89715,5.88166-1.71942,8.83457-2.58374,1.48129-.40753,2.9595-.84454,4.45147-1.21319l4.49872-1.00763c3.003-.66718,6.01312-1.34924,9.04437-1.89655l9.1316-1.47955a257.758,257.758,0,0,1,36.96243-2.57l4.64343-.01916,4.63709.15155c3.09027.1308,6.18805.21148,9.27612.40643l9.25513.73151,2.31414.19262,2.30433.26929,4.60968.54144c3.07617.345,6.14782.731,9.198,1.2439,3.05433.48773,6.11689.93787,9.16608,1.45807l9.10761,1.76794c1.52142.28034,3.03228.60639,4.538.95478l4.52387,1.01757a402.05116,402.05116,0,0,1,70.18884,23.29194q16.937,7.39141,33.14355,16.24884c5.36707,3.00384,10.71283,6.03265,15.92005,9.29742C746.66162,1036.00317,751.8186,1039.34607,756.74109,1043.01587Z" transform="translate(-48.73996 -665.79688)"/><path class="cls-9" d="M754.70581,1088.91565c-2.752-1.35657-5.495-2.70593-8.27557-3.984-2.75855-1.31482-5.52631-2.60583-8.31458-3.85022l-8.34875-3.74133c-2.80219-1.20313-5.58441-2.43909-8.40418-3.59314-11.21954-4.7356-22.51764-9.21973-33.92218-13.36719a582.31228,582.31228,0,0,0-69.52185-20.82507q-17.63589-4.15759-35.56262-6.785l-4.47571-.67382-2.23865-.33631-2.24664-.25976-8.988-1.07788c-2.99926-.33033-6.00878-.52918-9.01483-.81287l-4.51178-.41077-4.5202-.2417a351.255,351.255,0,0,0-36.2829-.40027l-9.1008.43543c-3.03369.18774-6.04571.57178-9.08847.78882l-4.56146.38318c-1.51685.15771-3.02048.39782-4.53583.58459-3.03335.36328-6.0657.7688-9.1243,1.09924,2.92768-.89709,5.88163-1.71936,8.83454-2.58374,1.48129-.40747,2.9595-.84448,4.45148-1.21313l4.49871-1.00769c3.003-.66712,6.01313-1.34924,9.04438-1.89649l9.13159-1.47961a257.75084,257.75084,0,0,1,36.96243-2.57l4.64343-.01916,4.63709.15155c3.09027.1308,6.188.21149,9.27612.40637l9.25513.73151,2.31415.19262,2.30432.26935,4.60968.54138c3.07617.345,6.14782.731,9.198,1.244,3.05432.48767,6.11688.93787,9.16607,1.458l9.10761,1.76794c1.52142.2804,3.03228.60645,4.538.95484l4.52387,1.01758a402.04507,402.04507,0,0,1,70.18884,23.29187q16.937,7.39141,33.14362,16.2489c5.367,3.00378,10.71276,6.03259,15.92,9.29736C744.62634,1081.903,749.78333,1085.24585,754.70581,1088.91565Z" transform="translate(-48.73996 -665.79688)"/></g><g id="Nome"><text class="cls-10" transform="translate(184.76812 658.59271) rotate(24.43166)">W</text><text class="cls-10" transform="translate(388.49224 744.90911) rotate(12.8855)">e</text><text class="cls-10" transform="matrix(0.99661, 0.08227, -0.08227, 0.99661, 522.26373, 774.45208)">b</text><text class="cls-10" transform="matrix(0.99995, 0.01047, -0.01047, 0.99995, 661.24371, 784.05853)"> </text><text class="cls-11" transform="translate(749.99078 789.46673) rotate(-12.62987)">F</text><text class="cls-11" transform="translate(895.81109 754.57513) rotate(-18.98025)">o</text><text class="cls-11" transform="translate(1024.00152 709.70403) rotate(-21.14126)">l</text><text class="cls-11" transform="translate(1097.18805 681.40228) rotate(-22.25084)">i</text><text class="cls-11" transform="translate(1175.45562 649.5888) rotate(-23.37859)">o</text><text class="cls-10" transform="translate(1296.23199 597.09954) rotate(-24.22064)"> </text></g></svg>